<svg xmlns="http://www.w3.org/2000/svg" xmlns:xlink="http://www.w3.org/1999/xlink" width="200" zoomAndPan="magnify" viewBox="0 0 150 30.000001" height="40" preserveAspectRatio="xMidYMid meet" version="1.0"><path fill="#ff991f" d="M 115.15625 15.496094 C 115.15625 11.207031 118.890625 7.601562 123.308594 7.601562 C 124.449219 7.601562 125.546875 7.832031 126.59375 8.289062 C 127.644531 8.742188 128.558594 9.390625 129.34375 10.226562 L 126.578125 12.695312 C 126.1875 12.1875 125.703125 11.785156 125.128906 11.5 C 124.554688 11.210938 123.949219 11.0625 123.308594 11.050781 C 123.015625 11.050781 122.730469 11.078125 122.445312 11.136719 C 122.160156 11.195312 121.882812 11.277344 121.613281 11.390625 C 121.34375 11.503906 121.089844 11.640625 120.847656 11.800781 C 120.605469 11.964844 120.382812 12.148438 120.175781 12.355469 C 119.96875 12.5625 119.785156 12.789062 119.625 13.03125 C 119.460938 13.273438 119.328125 13.53125 119.214844 13.800781 C 119.105469 14.070312 119.019531 14.351562 118.964844 14.636719 C 118.90625 14.925781 118.878906 15.214844 118.878906 15.507812 C 118.878906 15.800781 118.90625 16.089844 118.964844 16.375 C 119.019531 16.664062 119.105469 16.941406 119.214844 17.210938 C 119.328125 17.480469 119.460938 17.738281 119.625 17.980469 C 119.785156 18.226562 119.96875 18.449219 120.175781 18.65625 C 120.382812 18.863281 120.605469 19.050781 120.847656 19.210938 C 121.089844 19.375 121.34375 19.511719 121.613281 19.625 C 121.882812 19.734375 122.160156 19.820312 122.445312 19.878906 C 122.730469 19.933594 123.015625 19.960938 123.308594 19.960938 C 123.953125 19.949219 124.5625 19.800781 125.140625 19.511719 C 125.714844 19.226562 126.203125 18.828125 126.601562 18.316406 L 129.34375 20.765625 C 128.5625 21.605469 127.648438 22.257812 126.597656 22.714844 C 125.550781 23.175781 124.453125 23.40625 123.308594 23.40625 C 118.890625 23.40625 115.15625 19.785156 115.15625 15.496094 Z M 115.15625 15.496094 " fill-opacity="1" fill-rule="nonzero"/><path fill="#ff991f" d="M 137.804688 23.136719 L 135.664062 20.078125 L 133.5 23.136719 L 129.589844 23.136719 L 133.722656 17.324219 L 129.785156 11.679688 L 133.761719 11.679688 L 135.730469 14.476562 L 137.699219 11.679688 L 141.613281 11.679688 L 137.675781 17.257812 L 141.839844 23.167969 Z M 137.804688 23.136719 " fill-opacity="1" fill-rule="nonzero"/><path fill="#ffffff" d="M 13.929688 23.839844 C 12.90625 23.839844 11.894531 23.71875 10.902344 23.472656 C 9.910156 23.238281 8.953125 22.902344 8.03125 22.46875 C 7.960938 22.449219 7.894531 22.421875 7.832031 22.386719 C 7.726562 22.324219 7.679688 22.277344 7.679688 22.253906 C 7.695312 22.195312 7.722656 22.140625 7.757812 22.09375 L 7.953125 21.75 L 8.226562 21.277344 L 8.542969 20.738281 L 9.171875 19.71875 C 9.367188 19.386719 9.503906 19.148438 9.582031 19.003906 C 9.753906 19.070312 9.917969 19.152344 10.074219 19.246094 C 10.757812 19.589844 11.464844 19.863281 12.203125 20.058594 C 12.945312 20.253906 13.699219 20.351562 14.464844 20.34375 C 14.691406 20.34375 14.929688 20.34375 15.183594 20.316406 C 15.421875 20.300781 15.65625 20.253906 15.878906 20.171875 C 16.085938 20.09375 16.257812 19.96875 16.398438 19.800781 C 16.550781 19.59375 16.621094 19.359375 16.605469 19.101562 C 16.605469 18.960938 16.566406 18.832031 16.484375 18.71875 C 16.402344 18.601562 16.304688 18.503906 16.1875 18.417969 C 16.070312 18.332031 15.949219 18.257812 15.820312 18.191406 C 15.699219 18.132812 15.574219 18.082031 15.445312 18.035156 C 15.171875 17.929688 14.890625 17.851562 14.601562 17.796875 C 14.316406 17.75 14.007812 17.691406 13.738281 17.625 C 13.472656 17.558594 12.988281 17.445312 12.621094 17.367188 C 12.253906 17.289062 11.90625 17.195312 11.5625 17.085938 C 11.21875 16.976562 10.871094 16.871094 10.558594 16.746094 C 10.246094 16.625 9.949219 16.472656 9.664062 16.296875 C 9.09375 15.960938 8.644531 15.507812 8.308594 14.933594 C 7.9375 14.214844 7.773438 13.453125 7.808594 12.648438 C 7.808594 12.3125 7.847656 11.980469 7.917969 11.65625 C 8.125 10.675781 8.605469 9.855469 9.355469 9.195312 C 9.8125 8.800781 10.320312 8.492188 10.878906 8.261719 C 11.445312 8.027344 12.027344 7.855469 12.632812 7.753906 C 13.242188 7.664062 13.859375 7.617188 14.476562 7.617188 C 15.480469 7.617188 16.472656 7.738281 17.449219 7.984375 C 18.445312 8.230469 19.378906 8.628906 20.25 9.179688 L 19.28125 10.828125 C 18.976562 11.367188 18.6875 11.90625 18.351562 12.460938 C 17.636719 12.109375 16.902344 11.808594 16.148438 11.554688 C 15.398438 11.3125 14.628906 11.195312 13.839844 11.199219 C 13.640625 11.199219 13.441406 11.210938 13.246094 11.230469 C 13.039062 11.246094 12.839844 11.292969 12.652344 11.375 C 12.472656 11.453125 12.320312 11.566406 12.199219 11.722656 C 12.070312 11.898438 12.011719 12.097656 12.027344 12.320312 C 12.019531 12.488281 12.058594 12.644531 12.140625 12.792969 C 12.269531 12.96875 12.4375 13.097656 12.636719 13.179688 C 12.929688 13.304688 13.226562 13.40625 13.53125 13.484375 C 13.886719 13.574219 14.273438 13.664062 14.71875 13.75 C 15.164062 13.832031 15.578125 13.933594 16.035156 14.054688 C 16.492188 14.171875 16.925781 14.304688 17.378906 14.460938 C 17.816406 14.605469 18.242188 14.789062 18.652344 15.011719 C 19.039062 15.21875 19.398438 15.476562 19.722656 15.777344 C 20.035156 16.078125 20.285156 16.429688 20.464844 16.828125 C 20.609375 17.136719 20.707031 17.464844 20.757812 17.804688 C 20.808594 18.144531 20.835938 18.492188 20.839844 18.839844 C 20.859375 19.242188 20.828125 19.640625 20.738281 20.03125 C 20.648438 20.425781 20.503906 20.796875 20.308594 21.152344 C 20.117188 21.503906 19.875 21.824219 19.59375 22.109375 C 19.308594 22.394531 18.988281 22.632812 18.640625 22.828125 C 17.945312 23.214844 17.207031 23.476562 16.425781 23.609375 C 15.601562 23.761719 14.769531 23.839844 13.929688 23.839844 Z M 13.929688 23.839844 " fill-opacity="1" fill-rule="nonzero"/><path fill="#ffffff" d="M 35.234375 17.769531 C 35.242188 18.445312 35.125 19.101562 34.890625 19.734375 C 34.667969 20.351562 34.347656 20.910156 33.933594 21.417969 C 33.511719 21.921875 33.023438 22.351562 32.472656 22.707031 C 31.902344 23.074219 31.296875 23.351562 30.652344 23.546875 C 30.359375 23.636719 30.066406 23.707031 29.765625 23.761719 C 29.46875 23.8125 29.167969 23.839844 28.867188 23.839844 C 28.566406 23.839844 28.269531 23.8125 27.976562 23.761719 C 27.679688 23.707031 27.386719 23.636719 27.101562 23.546875 C 26.453125 23.351562 25.847656 23.070312 25.277344 22.707031 C 24.722656 22.351562 24.238281 21.921875 23.820312 21.417969 C 23.398438 20.90625 23.074219 20.339844 22.847656 19.71875 C 22.617188 19.082031 22.503906 18.425781 22.503906 17.75 L 22.503906 8.066406 L 26.746094 8.066406 L 26.746094 17.511719 C 26.742188 17.789062 26.796875 18.054688 26.917969 18.304688 C 27.03125 18.546875 27.1875 18.757812 27.386719 18.941406 C 27.585938 19.121094 27.8125 19.257812 28.066406 19.351562 C 28.601562 19.558594 29.136719 19.558594 29.671875 19.351562 C 29.921875 19.257812 30.148438 19.121094 30.347656 18.941406 C 30.546875 18.761719 30.703125 18.550781 30.816406 18.304688 C 30.9375 18.054688 31 17.789062 30.996094 17.511719 L 30.996094 8.066406 L 35.230469 8.066406 Z M 35.234375 17.769531 " fill-opacity="1" fill-rule="nonzero"/><path fill="#ffffff" d="M 46.742188 23.367188 L 44.097656 18.636719 L 41.527344 18.636719 L 41.527344 23.367188 L 37.328125 23.367188 L 37.328125 8.066406 L 44.960938 8.066406 C 45.34375 8.070312 45.714844 8.136719 46.078125 8.269531 C 46.460938 8.414062 46.828125 8.59375 47.171875 8.820312 C 47.523438 9.046875 47.851562 9.308594 48.152344 9.601562 C 48.4375 9.871094 48.695312 10.167969 48.917969 10.488281 C 49.195312 10.898438 49.390625 11.34375 49.515625 11.824219 C 49.648438 12.296875 49.71875 12.777344 49.722656 13.269531 C 49.726562 14.023438 49.550781 14.734375 49.195312 15.398438 C 48.832031 16.066406 48.34375 16.621094 47.722656 17.054688 L 51.292969 23.367188 Z M 43.769531 11.476562 L 41.390625 11.476562 L 41.390625 14.769531 L 43.769531 14.769531 C 44 14.769531 44.222656 14.726562 44.4375 14.640625 C 44.640625 14.558594 44.824219 14.441406 44.984375 14.285156 C 45.140625 14.136719 45.265625 13.960938 45.359375 13.765625 C 45.453125 13.5625 45.496094 13.347656 45.496094 13.121094 C 45.496094 12.894531 45.449219 12.679688 45.359375 12.472656 C 45.265625 12.277344 45.140625 12.105469 44.984375 11.953125 C 44.824219 11.800781 44.640625 11.683594 44.4375 11.601562 C 44.226562 11.519531 44.011719 11.476562 43.789062 11.476562 Z M 43.769531 11.476562 " fill-opacity="1" fill-rule="nonzero"/><path fill="#ffffff" d="M 52.488281 8.066406 L 56.589844 8.066406 L 56.589844 23.367188 L 52.488281 23.367188 Z M 52.488281 8.066406 " fill-opacity="1" fill-rule="nonzero"/><path fill="#ffffff" d="M 66.214844 23.839844 C 65.121094 23.847656 64.070312 23.632812 63.066406 23.199219 C 62.105469 22.78125 61.257812 22.199219 60.523438 21.445312 C 59.789062 20.691406 59.214844 19.832031 58.804688 18.863281 C 58.386719 17.863281 58.179688 16.820312 58.179688 15.734375 C 58.179688 14.648438 58.386719 13.605469 58.804688 12.605469 C 59.214844 11.636719 59.789062 10.777344 60.523438 10.027344 C 61.253906 9.273438 62.105469 8.6875 63.066406 8.269531 C 64.039062 7.855469 65.050781 7.644531 66.105469 7.628906 C 67.160156 7.617188 68.175781 7.804688 69.15625 8.191406 C 70.121094 8.578125 70.988281 9.121094 71.761719 9.820312 L 68.640625 12.582031 C 67.933594 12.050781 67.140625 11.78125 66.261719 11.769531 C 65.730469 11.765625 65.21875 11.871094 64.730469 12.085938 C 64.277344 12.292969 63.878906 12.582031 63.542969 12.953125 C 63.183594 13.324219 62.898438 13.75 62.691406 14.226562 C 62.492188 14.710938 62.394531 15.210938 62.394531 15.734375 C 62.394531 16.265625 62.492188 16.773438 62.691406 17.265625 C 62.882812 17.734375 63.148438 18.152344 63.488281 18.519531 C 63.832031 18.882812 64.230469 19.171875 64.679688 19.386719 C 65.160156 19.609375 65.664062 19.71875 66.195312 19.710938 C 66.828125 19.722656 67.421875 19.578125 67.980469 19.28125 C 68.542969 18.976562 69.015625 18.566406 69.402344 18.054688 L 72.640625 20.699219 C 71.851562 21.683594 70.890625 22.453125 69.761719 23.011719 C 68.644531 23.570312 67.460938 23.84375 66.214844 23.839844 Z M 66.214844 23.839844 " fill-opacity="1" fill-rule="nonzero"/><path fill="#ffffff" d="M 83.683594 23.367188 L 82.910156 21.253906 L 78.214844 21.253906 L 77.429688 23.367188 L 73.136719 23.367188 L 78.75 8.066406 L 82.316406 8.066406 L 87.941406 23.367188 Z M 80.570312 13.648438 L 79.34375 17.683594 L 81.757812 17.683594 Z M 80.570312 13.648438 " fill-opacity="1" fill-rule="nonzero"/><path fill="#ffffff" d="M 99.859375 11.851562 L 95.699219 11.851562 L 95.699219 23.367188 L 91.535156 23.367188 L 91.535156 11.851562 L 87.371094 11.851562 L 87.097656 11.570312 L 87.097656 8.066406 L 100.15625 8.066406 L 100.15625 11.570312 Z M 99.859375 11.851562 " fill-opacity="1" fill-rule="nonzero"/><path fill="#ffffff" d="M 107.648438 17.851562 L 111.421875 17.851562 L 107.824219 8.066406 L 104.253906 8.066406 L 98.605469 23.367188 L 102.898438 23.367188 L 103.683594 21.253906 L 107.648438 21.253906 Z M 106.039062 13.664062 L 107.226562 17.703125 L 104.8125 17.703125 Z M 106.039062 13.664062 " fill-opacity="1" fill-rule="nonzero"/></svg>